<?xml version="1.0" standalone="no"?>
<!DOCTYPE svg PUBLIC "-//W3C//DTD SVG 20010904//EN"
 "http://www.w3.org/TR/2001/REC-SVG-20010904/DTD/svg10.dtd">
<svg version="1.0" xmlns="http://www.w3.org/2000/svg"
 width="500.000000pt" height="348.000000pt" viewBox="0 0 500.000000 348.000000"
 preserveAspectRatio="xMidYMid meet">

<g transform="translate(0.000000,348.000000) scale(0.100000,-0.100000)"
fill="#000000" stroke="none">
<path d="M3977 3469 c-60 -4 -111 -10 -114 -12 -3 -3 15 -10 39 -15 l43 -9
-50 -6 c-27 -4 -77 -10 -110 -14 l-60 -7 40 -12 40 -12 -37 -1 c-114 -3 36
-41 232 -60 69 -7 41 -9 -147 -10 -127 0 -239 -4 -249 -8 -22 -8 172 -52 234
-53 26 0 41 -4 37 -10 -3 -5 -24 -10 -45 -10 -21 0 -73 -7 -116 -15 -140 -27
-292 -85 -184 -70 57 7 363 25 368 21 1 -2 -18 -9 -44 -15 -25 -7 -117 -38
-205 -71 -87 -32 -185 -65 -219 -72 -72 -14 -60 -28 25 -28 83 0 189 27 400
103 100 36 197 69 215 75 19 5 44 13 55 17 11 4 -4 -8 -33 -27 -160 -104 -384
-410 -426 -583 -29 -122 -27 -182 3 -90 27 83 74 168 148 267 97 133 96 132
73 65 -22 -64 -27 -170 -8 -214 11 -27 12 -25 20 35 5 35 22 93 38 128 26 58
149 249 156 242 1 -2 -6 -33 -15 -68 -10 -36 -24 -115 -31 -174 -12 -96 -18
-117 -50 -170 -20 -34 -48 -90 -62 -126 -37 -95 -39 -98 -32 -66 3 16 20 67
38 113 18 46 30 83 27 83 -11 0 -90 -126 -115 -182 -13 -29 -28 -64 -35 -78
-11 -25 -11 -24 -5 5 7 35 63 156 95 204 l23 34 -27 -17 c-66 -44 -135 -159
-169 -284 -18 -66 -21 -104 -21 -262 0 -123 5 -207 15 -250 l14 -65 0 110 c0
104 12 290 19 283 2 -2 6 -32 10 -68 7 -77 31 -166 52 -195 13 -18 14 -17 6
20 -13 66 -7 264 11 340 23 95 47 177 51 173 2 -2 -6 -37 -17 -78 -17 -58 -22
-104 -22 -205 -1 -79 3 -137 10 -149 9 -15 12 4 16 90 4 92 10 127 44 228 l39
120 6 -85 c4 -62 13 -101 33 -144 26 -57 46 -73 26 -21 -13 35 -13 157 1 216
13 60 51 183 58 192 3 4 6 -23 7 -60 1 -91 25 -268 34 -251 4 8 13 70 19 139
7 69 15 141 18 160 6 34 7 33 14 -20 5 -30 22 -86 38 -125 l30 -70 -1 160 c-1
120 4 188 19 271 11 62 24 117 27 123 9 14 0 14 -25 1 -15 -9 -19 -7 -19 6 0
33 60 193 114 304 55 112 58 115 99 127 23 6 52 12 65 12 21 1 21 -1 -14 -54
-21 -30 -39 -54 -40 -52 -2 2 1 19 6 38 6 18 10 38 10 43 0 18 -72 -59 -110
-116 -47 -72 -69 -156 -74 -278 -2 -52 -10 -120 -19 -150 -21 -70 -22 -200 -1
-271 20 -69 34 -84 35 -39 l1 35 13 -30 13 -29 11 59 c7 33 16 71 21 85 8 23
8 23 9 3 2 -61 16 -56 37 12 20 65 22 68 32 45 9 -24 10 -23 22 23 l13 48 14
-28 c22 -43 33 -50 33 -23 0 24 2 25 80 25 44 0 80 -1 80 -1 0 -1 -28 -12 -62
-24 -57 -21 -145 -70 -125 -70 5 0 54 11 109 25 55 14 102 25 103 23 7 -7
-130 -111 -169 -129 l-41 -19 43 0 c23 0 60 9 82 20 22 11 41 20 43 20 6 0
-76 -165 -91 -183 -8 -9 -12 -20 -9 -24 9 -9 82 71 145 158 29 41 74 98 100
127 l47 52 -3 -85 c-2 -60 1 -100 13 -134 17 -51 89 -161 106 -161 5 0 -4 26
-20 58 -25 51 -65 191 -57 200 2 1 19 -23 37 -55 l34 -58 3 37 c2 20 -2 47 -8
59 -8 15 -9 19 -1 15 20 -12 13 95 -10 160 l-22 62 22 35 c11 19 21 38 21 43
0 5 -10 -7 -21 -26 -12 -19 -22 -36 -23 -37 0 0 -28 -4 -61 -7 l-60 -6 55 19
c54 19 55 19 20 21 -28 2 -30 4 -10 7 49 8 56 16 20 23 l-35 7 33 2 c50 2 37
21 -15 22 -40 0 -44 2 -23 9 14 5 46 11 73 15 l47 6 0 84 c0 58 -4 85 -12 88
-10 4 -10 7 0 18 8 9 12 53 12 145 0 126 -1 133 -21 139 -12 4 -24 3 -28 -3
-4 -7 -12 -6 -23 2 -24 17 -12 26 34 26 62 0 44 16 -39 34 -83 18 -139 43 -71
31 32 -5 36 -3 32 12 -11 42 -60 47 -434 48 -195 0 -404 -2 -463 -6z m543
-105 l45 -13 -25 21 c-21 17 -22 20 -5 15 42 -12 229 -29 263 -24 28 5 33 4
20 -4 -10 -5 -86 -19 -170 -30 -84 -11 -179 -26 -211 -33 -32 -8 -66 -12 -75
-10 -9 3 -51 8 -92 13 l-75 8 65 2 c36 2 85 6 110 10 l45 7 -63 13 c-35 7 -62
14 -60 16 2 3 44 0 93 -5 48 -6 90 -9 92 -7 2 3 -11 10 -29 17 -70 26 -74 30
-23 23 28 -3 70 -12 95 -19z m370 -4 c0 -12 -8 -12 -35 0 -18 8 -17 9 8 9 15
1 27 -3 27 -9z m-70 -25 c0 -3 -15 -11 -32 -18 -83 -35 -142 -116 -160 -219
-19 -113 -6 -144 34 -77 14 23 28 37 32 31 3 -5 -11 -32 -32 -59 -21 -26 -44
-57 -50 -68 -11 -19 -12 -18 -8 5 2 14 7 33 11 43 6 14 3 16 -11 11 -16 -5
-16 -4 -4 5 10 7 11 11 3 11 -7 0 -18 -9 -25 -20 -16 -26 -32 -26 -25 0 3 11
1 18 -4 14 -16 -9 -10 3 26 58 45 67 68 144 63 211 l-3 52 75 11 c94 14 110
15 110 9z m50 -5 c0 -5 -7 -10 -16 -10 -8 0 -12 5 -9 10 3 6 10 10 16 10 5 0
9 -4 9 -10z m74 -47 c3 -7 0 -15 -6 -19 -7 -4 -8 -3 -4 4 4 7 2 12 -3 12 -6 0
-11 -4 -11 -9 0 -5 -7 -11 -15 -15 -13 -4 -13 -2 -5 14 12 23 13 33 2 26 -5
-3 -9 1 -9 8 0 16 44 -2 51 -21z m-324 23 c0 -7 -52 -96 -56 -96 -2 0 -4 23
-4 50 0 49 1 50 30 50 17 0 30 -2 30 -4z m-313 -67 c-22 -11 -41 -18 -44 -15
-4 3 9 12 28 20 50 22 60 18 16 -5z m-62 -19 c-3 -5 -11 -10 -16 -10 -6 0 -7
5 -4 10 3 6 11 10 16 10 6 0 7 -4 4 -10z m611 -18 c-8 -15 -19 -50 -24 -77 -6
-28 -19 -76 -31 -107 -11 -31 -18 -64 -15 -72 8 -22 -2 -20 -26 4 -39 39 -22
99 62 223 41 61 58 75 34 29z m114 -32 c-6 -11 -13 -49 -17 -85 l-6 -65 -34 0
c-34 0 -34 0 -27 38 7 39 86 162 92 144 2 -6 -2 -20 -8 -32z m-775 -269 c-1
-96 -2 -99 -30 -126 -17 -14 -23 -23 -15 -19 10 5 9 0 -4 -14 -23 -26 -45 -30
-25 -4 13 15 12 16 -3 3 -10 -7 -16 -17 -13 -21 2 -4 -9 -20 -25 -35 -36 -35
-37 -32 -7 31 13 27 46 102 73 167 27 64 49 117 49 117 0 0 0 -44 0 -99z m751
89 c57 0 38 -15 -21 -16 -30 -1 -55 2 -55 6 0 13 14 21 28 15 7 -3 29 -5 48
-5z m-437 -55 c-18 -25 -34 -43 -37 -41 -8 8 51 85 66 86 2 0 -11 -20 -29 -45z
m221 20 c14 -19 14 -19 -2 -6 -10 7 -18 18 -18 24 0 6 1 8 3 6 1 -2 9 -13 17
-24z m180 -15 c-20 -13 -40 -13 -40 0 0 6 12 10 28 10 21 0 24 -2 12 -10z
m-478 -72 c-15 -62 -16 -63 -24 -31 -6 24 -4 41 7 63 26 50 34 34 17 -32z
m358 27 c0 -8 -7 -15 -15 -15 -8 0 -15 7 -15 15 0 8 7 15 15 15 8 0 15 -7 15
-15z m-100 -5 c0 -5 -5 -10 -11 -10 -5 0 -7 5 -4 10 3 6 8 10 11 10 2 0 4 -4
4 -10z m203 3 c-7 -2 -19 -2 -25 0 -7 3 -2 5 12 5 14 0 19 -2 13 -5z m-542
-116 c-13 -13 -15 34 -3 73 6 21 7 18 10 -19 2 -24 -2 -49 -7 -54z m329 83 c0
-5 -5 -10 -11 -10 -5 0 -7 5 -4 10 3 6 8 10 11 10 2 0 4 -4 4 -10z m-94 -106
c-8 -21 -38 -18 -32 4 3 9 11 37 18 62 l13 45 3 -49 c2 -27 1 -55 -2 -62z m94
66 c0 -11 -7 -20 -15 -20 -15 0 -21 21 -8 33 12 13 23 7 23 -13z m108 3 c-10
-2 -26 -2 -35 0 -10 3 -2 5 17 5 19 0 27 -2 18 -5z m-594 -54 c-12 -13 -20
-16 -22 -9 -3 7 2 16 9 21 25 16 32 9 13 -12z m546 -68 c-49 -15 -110 -21
-110 -12 0 9 42 17 105 18 29 1 29 1 5 -6z m174 -26 c-10 -16 -20 -23 -22 -16
-4 12 28 55 35 47 3 -2 -3 -17 -13 -31z m-306 13 c-7 -20 -68 -23 -68 -4 0 12
10 16 36 16 24 0 34 -4 32 -12z m-831 -560 c-3 -7 -5 -2 -5 12 0 14 2 19 5 13
2 -7 2 -19 0 -25z"/>
<path d="M4575 3010 c-3 -6 1 -7 9 -4 18 7 21 14 7 14 -6 0 -13 -4 -16 -10z"/>
<path d="M4940 3465 c33 -19 50 -19 50 0 0 11 -11 15 -37 15 l-38 -1 25 -14z"/>
<path d="M3965 3090 c-4 -6 -14 -9 -22 -6 -8 3 -36 -5 -62 -19 -27 -13 -51
-22 -53 -20 -9 9 -121 -35 -169 -66 -77 -49 -160 -146 -211 -245 -43 -83 -97
-229 -111 -299 -6 -29 -6 -29 5 -5 73 162 108 229 162 310 69 103 194 230 265
269 l44 24 -59 -59 c-106 -107 -173 -228 -238 -435 -20 -62 -36 -117 -36 -123
0 -6 39 67 87 162 47 95 88 171 90 169 2 -2 -5 -25 -16 -50 -26 -61 -44 -161
-35 -200 6 -29 8 -26 25 40 30 122 110 257 263 447 48 59 85 110 83 113 -3 2
-8 -1 -12 -7z m-35 -23 c-8 -7 -51 -47 -94 -88 -47 -43 -70 -61 -58 -42 27 38
141 143 156 143 6 0 4 -6 -4 -13z"/>
<path d="M4983 2685 c0 -22 2 -30 4 -17 2 12 2 30 0 40 -3 9 -5 -1 -4 -23z"/>
<path d="M4771 2484 c-29 -32 -72 -96 -97 -146 -24 -49 -53 -97 -64 -108 -20
-20 -20 -20 2 -20 13 0 39 18 64 45 l42 46 -18 -58 c-24 -78 -36 -168 -21
-159 6 4 11 13 11 20 0 7 25 64 56 127 66 133 94 210 94 253 0 28 -4 24 -40
-41 -23 -40 -43 -73 -45 -73 -3 0 13 36 36 81 22 45 38 83 36 85 -2 3 -28 -21
-56 -52z"/>
<path d="M4846 2400 c-23 -144 -28 -419 -6 -405 27 16 46 361 23 415 -11 25
-11 25 -17 -10z"/>
<path d="M815 720 c-3 -5 3 -58 14 -117 12 -58 19 -109 16 -111 -2 -2 -25 -6
-51 -8 -25 -2 -61 -13 -78 -24 -23 -16 -25 -20 -9 -15 13 3 41 6 63 7 22 0 38
4 35 8 -2 3 2 7 10 7 8 0 15 -4 15 -8 0 -12 -42 -31 -139 -65 -118 -41 -122
-66 -12 -79 137 -16 165 -24 180 -52 5 -10 10 -63 12 -118 2 -98 10 -135 29
-135 6 0 33 48 62 106 64 131 72 136 171 105 40 -13 85 -27 101 -32 91 -28 85
-1 -19 99 -61 58 -85 89 -85 106 0 23 20 57 100 169 27 38 31 50 21 60 -10 10
-32 1 -112 -41 -65 -35 -109 -52 -126 -50 -21 2 -43 24 -95 93 -70 92 -92 113
-103 95z"/>
<path d="M1580 305 c-112 -59 -233 -115 -246 -115 -10 0 -11 -6 -3 -26 7 -21
6 -31 -7 -45 -10 -11 -14 -19 -10 -19 11 0 64 29 68 37 3 9 64 53 72 53 10 0
171 117 185 134 18 21 16 21 -59 -19z"/>
<path d="M300 249 c20 -24 41 -56 47 -71 7 -14 20 -29 31 -32 10 -4 24 -17 30
-31 15 -32 52 -40 107 -25 24 7 76 11 114 8 46 -2 65 0 54 6 -9 5 -50 10 -92
12 -84 3 -101 15 -101 69 0 29 -2 31 -28 27 -16 -2 -35 2 -43 10 -8 8 -30 20
-49 27 -33 12 -72 29 -95 40 -5 3 6 -15 25 -40z"/>
<path d="M1292 140 c-10 -17 -10 -20 2 -20 19 0 31 19 19 31 -5 5 -14 0 -21
-11z"/>
<path d="M1008 123 c7 -3 16 -2 19 1 4 3 -2 6 -13 5 -11 0 -14 -3 -6 -6z"/>
<path d="M1200 113 c0 -6 -28 -9 -72 -8 -49 2 -63 0 -43 -5 69 -17 145 -7 121
17 -3 4 -6 2 -6 -4z"/>
</g>
</svg>
